<?xml version="1.0" encoding="UTF-8"?>
<svg version="1.1" xmlns="http://www.w3.org/2000/svg" width="225" height="168">
<path d="M0 0 C2.38222949 1.42992373 4.23320327 2.72566252 6.3125 4.5 C6.87735107 4.95850342 7.44220215 5.41700684 8.02416992 5.8894043 C9.16631022 6.81827183 10.30291161 7.75399569 11.43359375 8.69677734 C13.52964467 10.44065512 15.67184153 12.12383868 17.8125 13.8125 C22.92876541 17.92721264 28.01817205 22.07517517 33.11206055 26.2175293 C39.45644626 31.37529239 45.81001967 36.51960778 52.26171875 41.54296875 C58.12361794 46.11219798 63.9179475 50.72614479 69.5625 55.5625 C73.72441531 59.12635962 77.95287644 62.55159238 82.3125 65.875 C83.93575448 67.11791033 85.55815022 68.36193167 87.18017578 69.60644531 C88.48889395 70.60861372 89.80006427 71.60758289 91.11279297 72.60449219 C93.33824522 74.30346714 95.54507904 76.02449515 97.75 77.75 C98.45423096 78.28093262 99.15846191 78.81186523 99.8840332 79.35888672 C103.10631258 81.90851378 104.76311044 83.28246497 106.078125 87.265625 C106 90 106 90 104 92 C101.49079154 92.17495606 99.09375059 92.23169569 96.5859375 92.1953125 C95.85629791 92.1924826 95.12665833 92.18965271 94.37490845 92.18673706 C92.04143972 92.17553002 89.70835297 92.1504251 87.375 92.125 C85.79427637 92.11497085 84.21354673 92.10584489 82.6328125 92.09765625 C78.75506086 92.07558905 74.87759522 92.04105615 71 92 C71.16233124 92.68298157 71.32466248 93.36596313 71.49191284 94.06964111 C72.06833514 97.39411837 72.12717853 100.51085064 72.12939453 103.88574219 C72.13202301 104.8939225 72.13202301 104.8939225 72.13470459 105.92247009 C72.13908471 108.13063178 72.13620004 110.33871259 72.1328125 112.546875 C72.13348633 114.0843304 72.13445701 115.62178569 72.13571167 117.15924072 C72.13718316 120.37358622 72.13505053 123.58790385 72.13037109 126.80224609 C72.12465488 130.93068006 72.12796818 135.05904929 72.13394356 139.18748093 C72.13754761 142.35807793 72.13641164 145.52865944 72.13381577 148.6992569 C72.13314706 150.22236387 72.13397298 151.74547223 72.13629532 153.26857758 C72.13882136 155.38970201 72.13498288 157.51071952 72.12939453 159.63183594 C72.12859894 160.84031189 72.12780334 162.04878784 72.12698364 163.29388428 C72 166 72 166 71 167 C68.44948526 167.10037731 65.92602821 167.13617487 63.375 167.12939453 C62.57666748 167.13114685 61.77833496 167.13289917 60.95581055 167.13470459 C58.3038519 167.13912367 55.65195938 167.13618492 53 167.1328125 C51.16536445 167.13348552 49.33072899 167.13445553 47.49609375 167.13571167 C43.64582472 167.13718872 39.79557884 167.13503386 35.9453125 167.13037109 C30.99843503 167.1246738 26.05161181 167.12795277 21.10473633 167.13394356 C17.31477445 167.13754898 13.52482554 167.13641067 9.73486328 167.13381577 C7.91031895 167.13314644 6.08577345 167.1339751 4.26123047 167.13629532 C1.71578839 167.13882154 -0.82956459 167.1349817 -3.375 167.12939453 C-4.13659424 167.13141876 -4.89818848 167.13344299 -5.68286133 167.13552856 C-10.88573742 167.11426258 -10.88573742 167.11426258 -12 166 C-12.10643405 164.63480629 -12.14616942 163.26430722 -12.15771484 161.89501953 C-12.16797699 161.02386505 -12.17823914 160.15271057 -12.18881226 159.25515747 C-12.19611359 158.30728363 -12.20341492 157.35940979 -12.2109375 156.3828125 C-12.23900508 154.394523 -12.26766954 152.40624186 -12.296875 150.41796875 C-12.33817663 147.26871971 -12.37504491 144.11962676 -12.40136719 140.97021484 C-12.4289121 137.94074895 -12.47478503 134.91200294 -12.5234375 131.8828125 C-12.52669037 130.93898712 -12.52994324 129.99516174 -12.53329468 129.0227356 C-12.54986115 128.14527679 -12.56642761 127.26781799 -12.58349609 126.36376953 C-12.59158295 125.5917923 -12.5996698 124.81981506 -12.60800171 124.02444458 C-13.10669092 121.44900306 -13.91338423 120.55579501 -16 119 C-19.34434729 118.56734626 -19.34434729 118.56734626 -23.1875 118.671875 C-23.88641357 118.67374817 -24.58532715 118.67562134 -25.30541992 118.67755127 C-26.78146137 118.68426654 -28.25748518 118.69817082 -29.73339844 118.71875 C-31.99170493 118.74988563 -34.24931268 118.75972043 -36.5078125 118.765625 C-43.86152997 118.612392 -43.86152997 118.612392 -51 120 C-51.33 135.51 -51.66 151.02 -52 167 C-59.92 167 -67.84 167 -76 167 C-76.60771934 160.92280661 -77.12823898 155.45228712 -77.09375 149.44140625 C-77.09016479 148.73601212 -77.08657959 148.03061798 -77.08288574 147.30384827 C-77.00542415 136.51366381 -76.73984727 125.72499315 -76.5 114.9375 C-76.4516559 112.70247756 -76.40347772 110.46745153 -76.35546875 108.23242188 C-76.23888772 102.82157174 -76.12027477 97.41076923 -76 92 C-77.0194873 92.01571045 -78.03897461 92.0314209 -79.08935547 92.04760742 C-82.86499152 92.10183027 -86.64059304 92.13632184 -90.41650391 92.16479492 C-92.05197941 92.17989911 -93.68741429 92.20038389 -95.32275391 92.22631836 C-97.67100024 92.26263145 -100.01871205 92.27970932 -102.3671875 92.29296875 C-103.46726639 92.31619453 -103.46726639 92.31619453 -104.58956909 92.33988953 C-106.65185547 92.34057617 -106.65185547 92.34057617 -110 92 C-112 89 -112 89 -112 86.6484375 C-110.59814056 82.93570038 -108.02647181 81.0155874 -105 78.625 C-104.40550049 78.13950684 -103.81100098 77.65401367 -103.19848633 77.15380859 C-99.36303919 74.03624254 -95.46977873 70.99098005 -91.546875 67.984375 C-86.00306651 63.66496593 -80.58598907 59.18425982 -75.13916016 54.74365234 C-71.6367304 51.88878436 -68.13124576 49.03767932 -64.625 46.1875 C-63.9537207 45.64174316 -63.28244141 45.09598633 -62.59082031 44.53369141 C-58.19645006 40.96394641 -53.78221776 37.42016022 -49.35546875 33.890625 C-46.72275621 31.77746933 -44.11035284 29.64070777 -41.5 27.5 C-37.29644526 24.05378962 -33.07013932 20.63892942 -28.8203125 17.25 C-26.60434413 15.48213603 -24.39113573 13.71100541 -22.1796875 11.9375 C-21.17566895 11.13276245 -21.17566895 11.13276245 -20.15136719 10.31176758 C-18.82615971 9.24952597 -17.50127641 8.18687975 -16.17675781 7.1237793 C-14.9714562 6.15830164 -13.762033 5.19793874 -12.54785156 4.24365234 C-11.32221986 3.258894 -10.14686793 2.21159974 -8.9921875 1.14453125 C-5.83681714 -0.66825996 -3.56826298 -0.45894058 0 0 Z M12 120 C11.94620774 122.95857409 11.90642907 125.91617721 11.875 128.875 C11.85824219 129.71675781 11.84148437 130.55851563 11.82421875 131.42578125 C11.81777344 132.23144531 11.81132812 133.03710938 11.8046875 133.8671875 C11.79421387 134.61081543 11.78374023 135.35444336 11.77294922 136.12060547 C11.8334403 138.24490235 11.8334403 138.24490235 14 140 C18.34395071 140.27917421 22.64350967 140.08542138 27 140 C27 133.07 27 126.14 27 119 C19.33461542 118.41208996 19.33461542 118.41208996 12 120 Z M33 119 C33 125.93 33 132.86 33 140 C40.94305918 140.64266807 40.94305918 140.64266807 48 138 C48.27570606 135.08285199 48.3722561 132.4113174 48.3125 129.5 C48.31572266 128.71496094 48.31894531 127.92992187 48.32226562 127.12109375 C48.45407925 122.58406708 48.45407925 122.58406708 46 119 C41.65604929 118.72082579 37.35649033 118.91457862 33 119 Z " fill="#FED85E" transform="translate(117,1)"/>
<path d="M0 0 C0.99 0 1.98 0 3 0 C3 0.99 3 1.98 3 3 C5.475 3.495 5.475 3.495 8 4 C7.67 4.99 7.34 5.98 7 7 C2.71 6.67 -1.58 6.34 -6 6 C-5.67 7.32 -5.34 8.64 -5 10 C-5.08617641 12.76876481 -5.22550673 15.49165074 -5.4375 18.25 C-5.48970703 18.99507812 -5.54191406 19.74015625 -5.59570312 20.5078125 C-5.7248217 22.33894861 -5.86165114 24.16953813 -6 26 C-6.66 25.34 -7.32 24.68 -8 24 C-8.99 24.33 -9.98 24.66 -11 25 C-11 26.32 -11 27.64 -11 29 C-15.62 29 -20.24 29 -25 29 C-25.33 28.34 -25.66 27.68 -26 27 C-21.38 27 -16.76 27 -12 27 C-12 20.07 -12 13.14 -12 6 C-15.3 6 -18.6 6 -22 6 C-22.66 5.34 -23.32 4.68 -24 4 C-21.89611431 3.94597726 -19.79183286 3.90719744 -17.6875 3.875 C-15.92986328 3.84019531 -15.92986328 3.84019531 -14.13671875 3.8046875 C-11 4 -11 4 -8 6 C-8 5.34 -8 4.68 -8 4 C-6.8553125 3.8453125 -6.8553125 3.8453125 -5.6875 3.6875 C-2.757381 2.93793468 -2.02209812 2.11401167 0 0 Z " fill="#F4D15A" transform="translate(156,114)"/>
<path d="M0 0 C0.33 1.32 0.66 2.64 1 4 C0.360625 4.28875 -0.27875 4.5775 -0.9375 4.875 C-3.15206079 5.82823451 -3.15206079 5.82823451 -4 8 C-3.34 8 -2.68 8 -2 8 C-2.61277612 10.96175123 -3.25372522 12.38058783 -5 15 C8.365 15.495 8.365 15.495 22 16 C22.495 16.99 22.495 16.99 23 18 C18.19453321 18.07405295 13.3893971 18.12855497 8.58349609 18.16479492 C6.94802059 18.17989911 5.31258571 18.20038389 3.67724609 18.22631836 C1.32899976 18.26263145 -1.01871205 18.27970932 -3.3671875 18.29296875 C-4.46726639 18.31619453 -4.46726639 18.31619453 -5.58956909 18.33988953 C-7.65185547 18.34057617 -7.65185547 18.34057617 -11 18 C-13 15 -13 15 -13.00390625 12.64453125 C-11.59519498 8.93364593 -8.98868873 7.04127417 -5.9375 4.6875 C-5.36966797 4.23310547 -4.80183594 3.77871094 -4.21679688 3.31054688 C-2.82022125 2.19563356 -1.41127888 1.09624226 0 0 Z " fill="#F4D56F" transform="translate(18,75)"/>
<path d="M0 0 C2.0625 1.6875 2.0625 1.6875 4 4 C3.7 8.3 3.7 8.3 2 10 C-0.3756852 10.0883967 -2.72208674 10.11530305 -5.09765625 10.09765625 C-6.16094398 10.09553383 -6.16094398 10.09553383 -7.24571228 10.09336853 C-9.51801712 10.08775443 -11.79022475 10.07519963 -14.0625 10.0625 C-15.59960796 10.05748681 -17.13671745 10.05292359 -18.67382812 10.04882812 C-22.44925642 10.03778042 -26.22461171 10.02050641 -30 10 C-30 9.67 -30 9.34 -30 9 C-18.12 8.01 -18.12 8.01 -6 7 C-5.34 5.02 -4.68 3.04 -4 1 C-2.68 1.33 -1.36 1.66 0 2 C0 1.34 0 0.68 0 0 Z " fill="#F4D56B" transform="translate(219,83)"/>
<path d="M0 0 C-0.375 2.9375 -0.375 2.9375 -1 6 C-1.99 6.495 -1.99 6.495 -3 7 C-3.72159424 8.64363134 -4.39351421 10.31050386 -5 12 C-5.99 11.67 -6.98 11.34 -8 11 C-8 10.01 -8 9.02 -8 8 C-9.32 9.32 -10.64 10.64 -12 12 C-12.66 11.34 -13.32 10.68 -14 10 C-12.04653795 8.32731078 -10.08770186 6.66178419 -8.125 5 C-7.56941406 4.52304687 -7.01382813 4.04609375 -6.44140625 3.5546875 C-2.2265625 0 -2.2265625 0 0 0 Z " fill="#F9D365" transform="translate(78,28)"/>
<path d="M0 0 C4.53571349 3.34477196 9.01200731 6.76054677 13.4375 10.25 C14.28183594 10.91515625 15.12617188 11.5803125 15.99609375 12.265625 C18 14 18 14 19 16 C17.68 16 16.36 16 15 16 C14.67 14.68 14.34 13.36 14 12 C12.68 12 11.36 12 10 12 C10 11.01 10 10.02 10 9 C7.35261084 7.5393715 6.10551666 7 3 7 C2.01 6.34 1.02 5.68 0 5 C-0.1875 2.375 -0.1875 2.375 0 0 Z " fill="#F1D367" transform="translate(122,5)"/>
<path d="M0 0 C0.33 1.32 0.66 2.64 1 4 C0.360625 4.28875 -0.27875 4.5775 -0.9375 4.875 C-3.15206079 5.82823451 -3.15206079 5.82823451 -4 8 C-3.34 8 -2.68 8 -2 8 C-2.33 9.32 -2.66 10.64 -3 12 C-4.98 10.68 -6.96 9.36 -9 8 C-6.17493137 5.0702992 -3.21203935 2.49825283 0 0 Z " fill="#FCD770" transform="translate(18,75)"/>
<path d="M0 0 C3.94139078 1.66751148 6.7892812 4.22710649 10 7 C7.13822943 8.43088528 5.06624227 7.59991697 2 7 C2 6.01 2 5.02 2 4 C1.34 3.67 0.68 3.34 0 3 C0 2.01 0 1.02 0 0 Z " fill="#F2D362" transform="translate(208,75)"/>
<path d="M0 0 C0 0.99 0 1.98 0 3 C-0.66 3 -1.32 3 -2 3 C-2.33 3.99 -2.66 4.98 -3 6 C-4.3125 7.75 -4.3125 7.75 -6 9 C-7.32 8.67 -8.64 8.34 -10 8 C-6.7 5.36 -3.4 2.72 0 0 Z " fill="#F0D06A" transform="translate(57,44)"/>
<path d="M0 0 C3.5625 0.1875 3.5625 0.1875 5.5625 2.1875 C4.89863281 2.30867187 4.23476562 2.42984375 3.55078125 2.5546875 C-0.97174459 3.41297708 -5.23688524 4.22721311 -9.4375 6.1875 C-3.4375 0.1875 -3.4375 0.1875 0 0 Z " fill="#ECCF6A" transform="translate(113.4375,0.8125)"/>
<path d="M0 0 C0 3 0 3 -1.875 5.0625 C-2.57625 5.701875 -3.2775 6.34125 -4 7 C-4.66 7.66 -5.32 8.32 -6 9 C-6.66 9 -7.32 9 -8 9 C-6.4169423 4.7257442 -3.49431596 2.73468206 0 0 Z " fill="#F2D371" transform="translate(95,13)"/>
<path d="M0 0 C0.66 0.33 1.32 0.66 2 1 C0.02 3.31 -1.96 5.62 -4 8 C-4.99 7.34 -5.98 6.68 -7 6 C-4.69 4.02 -2.38 2.04 0 0 Z " fill="#EFD26C" transform="translate(71,32)"/>
<path d="M0 0 C0.33 1.32 0.66 2.64 1 4 C-3.75 7 -3.75 7 -6 7 C-4.77065985 3.31197956 -3.06140622 2.27643027 0 0 Z " fill="#EAD167" transform="translate(18,75)"/>
<path d="M0 0 C2.31 1.65 4.62 3.3 7 5 C5.02 5.99 5.02 5.99 3 7 C2.67 6.01 2.34 5.02 2 4 C1.34 3.67 0.68 3.34 0 3 C0 2.01 0 1.02 0 0 Z " fill="#F3D066" transform="translate(163,38)"/>
</svg>
