<?xml version="1.0" encoding="UTF-8"?>
<svg version="1.1" xmlns="http://www.w3.org/2000/svg" width="701" height="239">
<path d="M0 0 C2.5031575 1.63429291 4.32583015 3.03516568 6.4375 5.0625 C7.57434672 6.08854199 8.7123683 7.11328374 9.8515625 8.13671875 C10.39458008 8.63478027 10.93759766 9.1328418 11.49707031 9.64599609 C13.36199481 11.32612463 15.31129077 12.86067501 17.3125 14.375 C21.50564561 17.58513711 25.59693866 20.91102205 29.6875 24.25 C34.75415734 28.38284449 39.84630753 32.47619819 45 36.5 C53.4463412 43.0997191 61.7375272 49.88814421 70.04101562 56.66601562 C77.16974082 62.48245392 84.31416756 68.27048028 91.5625 73.9375 C92.70208837 74.83429821 93.84142463 75.73141689 94.98046875 76.62890625 C96.78509735 78.04599495 98.59761009 79.45325983 100.42578125 80.83984375 C104.86403985 84.33530593 104.86403985 84.33530593 105.5625 87.75 C105 90 105 90 103 92 C99.92724609 92.31884766 99.92724609 92.31884766 96.0234375 92.4140625 C95.33819 92.43342865 94.6529425 92.4527948 93.94692993 92.4727478 C91.75641356 92.53256831 89.5658447 92.57893756 87.375 92.625 C85.89060198 92.66317763 84.40622616 92.70222924 82.921875 92.7421875 C79.28145315 92.83827084 75.64086564 92.92229282 72 93 C71.99413376 93.92263641 71.98826752 94.84527283 71.98222351 95.79586792 C71.9243929 104.47794308 71.85237216 113.15975833 71.76428509 121.84158134 C71.7194991 126.30533937 71.68026148 130.76900438 71.65356445 135.23291016 C71.62761308 139.53839118 71.58726963 143.84351583 71.53681374 148.14877701 C71.52008948 149.79382022 71.50860993 151.43892515 71.50238609 153.0840416 C71.49280488 155.38307071 71.46482011 157.68117661 71.43237305 159.97998047 C71.41571846 161.94522171 71.41571846 161.94522171 71.39872742 163.95016479 C71.20135735 165.45983322 71.20135735 165.45983322 71 167 C67.37864493 169.41423672 64.73098293 169.28917898 60.546875 169.2746582 C59.79047729 169.27976913 59.03407959 169.28488007 58.25476074 169.29014587 C55.75309348 169.30405247 53.25170133 169.30308453 50.75 169.30078125 C49.01269427 169.30466721 47.27538948 169.30900167 45.53808594 169.31376648 C41.89645304 169.3212307 38.2549171 169.32093568 34.61328125 169.31567383 C29.94229003 169.30987477 25.27169477 169.32681961 20.60076904 169.3500185 C17.01315992 169.36473531 13.42564665 169.36563043 9.8380127 169.36250877 C8.1155926 169.36302289 6.39316726 169.36827744 4.67077637 169.37832069 C2.26462903 169.39063013 -0.14074052 169.38392738 -2.546875 169.37231445 C-3.26073364 169.37995819 -3.97459229 169.38760193 -4.71008301 169.39547729 C-7.53388297 169.36528793 -9.53612001 169.30089838 -11.93978882 167.741745 C-13.24490581 165.59766179 -13.3894229 164.26524765 -13.41650391 161.75976562 C-13.43307037 160.90878296 -13.44963684 160.05780029 -13.46670532 159.18103027 C-13.46995819 158.26535278 -13.47321106 157.34967529 -13.4765625 156.40625 C-13.49214203 155.46317993 -13.50772156 154.52010986 -13.52377319 153.54846191 C-13.57134302 150.53231651 -13.59906691 147.51640254 -13.625 144.5 C-13.66149644 141.48376151 -13.70213952 138.46765393 -13.74765015 135.45153809 C-13.7748563 133.57409296 -13.79621648 131.69655228 -13.81118774 129.81896973 C-13.82144989 128.96798706 -13.83171204 128.11700439 -13.84228516 127.24023438 C-13.84878082 126.49205444 -13.85527649 125.74387451 -13.86196899 124.97302246 C-13.93254024 122.78696349 -13.93254024 122.78696349 -15 120 C-18.63932243 118.18033878 -22.92330543 118.55857283 -26.9375 118.375 C-27.88794189 118.33068848 -28.83838379 118.28637695 -29.81762695 118.24072266 C-40.6784844 117.43059333 -40.6784844 117.43059333 -51 120 C-51.92263546 122.76790638 -52.13819332 124.48683967 -52.17358398 127.34790039 C-52.18707382 128.2221315 -52.20056366 129.09636261 -52.21446228 129.99708557 C-52.22490067 130.9377739 -52.23533905 131.87846222 -52.24609375 132.84765625 C-52.27901548 134.83398906 -52.31222739 136.82031708 -52.34570312 138.80664062 C-52.39323871 141.94275797 -52.4377039 145.07885359 -52.47680664 148.21508789 C-52.51638137 151.23864482 -52.56794266 154.26181188 -52.62109375 157.28515625 C-52.6295079 158.2278688 -52.63792206 159.17058136 -52.64659119 160.14186096 C-52.66323318 161.01293991 -52.67987518 161.88401886 -52.69702148 162.78149414 C-52.70732895 163.54965958 -52.71763641 164.31782501 -52.72825623 165.10926819 C-53 167 -53 167 -55 169 C-57.81148881 169.19977141 -60.50276969 169.27816772 -63.3125 169.25 C-64.07240234 169.25773438 -64.83230469 169.26546875 -65.61523438 169.2734375 C-66.72801758 169.26957031 -66.72801758 169.26957031 -67.86328125 169.265625 C-68.53657471 169.26336914 -69.20986816 169.26111328 -69.90356445 169.25878906 C-72.49364189 168.93906365 -74.61963319 168.04434348 -77 167 C-78.05206337 153.45019069 -78.1545819 139.93413413 -78.13037109 126.34814453 C-78.12494795 122.71512804 -78.13038011 119.0822318 -78.13671875 115.44921875 C-78.13605896 113.1276039 -78.13477986 110.80598911 -78.1328125 108.484375 C-78.13483673 107.40420105 -78.13686096 106.3240271 -78.13894653 105.21112061 C-78.13421829 103.70234344 -78.13421829 103.70234344 -78.12939453 102.16308594 C-78.12859894 101.28392517 -78.12780334 100.4047644 -78.12698364 99.4989624 C-77.99563438 96.91408719 -77.56969824 94.52160124 -77 92 C-78.0194873 92.01571045 -79.03897461 92.0314209 -80.08935547 92.04760742 C-83.86499152 92.10183027 -87.64059304 92.13632184 -91.41650391 92.16479492 C-93.05197941 92.17989911 -94.68741429 92.20038389 -96.32275391 92.22631836 C-98.67100024 92.26263145 -101.01871205 92.27970932 -103.3671875 92.29296875 C-104.46726639 92.31619453 -104.46726639 92.31619453 -105.58956909 92.33988953 C-107.65185547 92.34057617 -107.65185547 92.34057617 -111 92 C-113 89 -113 89 -113 86.6484375 C-111.59814056 82.93570038 -109.02647181 81.0155874 -106 78.625 C-105.40550049 78.13950684 -104.81100098 77.65401367 -104.19848633 77.15380859 C-100.36303919 74.03624254 -96.46977873 70.99098005 -92.546875 67.984375 C-87.00306651 63.66496593 -81.58598907 59.18425982 -76.13916016 54.74365234 C-72.6367304 51.88878436 -69.13124576 49.03767932 -65.625 46.1875 C-64.9537207 45.64174316 -64.28244141 45.09598633 -63.59082031 44.53369141 C-59.19645006 40.96394641 -54.78221776 37.42016022 -50.35546875 33.890625 C-47.72275621 31.77746933 -45.11035284 29.64070777 -42.5 27.5 C-38.32229503 24.07393233 -34.11615012 20.68710187 -29.890625 17.3203125 C-27.55978487 15.44934083 -25.23835906 13.5683333 -22.921875 11.6796875 C-22.20346436 11.09413086 -21.48505371 10.50857422 -20.74487305 9.90527344 C-19.31051052 8.73519048 -17.8770515 7.56399893 -16.44458008 6.39160156 C-15.78353271 5.85245117 -15.12248535 5.31330078 -14.44140625 4.7578125 C-13.85045166 4.2745752 -13.25949707 3.79133789 -12.65063477 3.29345703 C-8.48624533 0.03019195 -5.2131274 -0.96176381 0 0 Z M11 120 C10.94620774 122.95857409 10.90642907 125.91617721 10.875 128.875 C10.85824219 129.71675781 10.84148437 130.55851563 10.82421875 131.42578125 C10.81777344 132.23144531 10.81132812 133.03710938 10.8046875 133.8671875 C10.79421387 134.61081543 10.78374023 135.35444336 10.77294922 136.12060547 C10.8334403 138.24490235 10.8334403 138.24490235 13 140 C17.34395071 140.27917421 21.64350967 140.08542138 26 140 C26 133.07 26 126.14 26 119 C18.33461542 118.41208996 18.33461542 118.41208996 11 120 Z M32 119 C32 125.93 32 132.86 32 140 C33.7325 140.04125 35.465 140.0825 37.25 140.125 C38.22453125 140.14820313 39.1990625 140.17140625 40.203125 140.1953125 C43.0196498 139.99862781 44.60949036 139.44568916 47 138 C47.05380578 135.20807795 47.09357669 132.4171859 47.125 129.625 C47.14175781 128.8309375 47.15851563 128.036875 47.17578125 127.21875 C47.19335473 125.14507985 47.10335168 123.07116759 47 121 C45.11153817 118.67133771 45.11153817 118.67133771 41.9609375 118.8046875 C38.640625 118.86979167 35.3203125 118.93489583 32 119 Z " fill="#FED85E" transform="translate(143,25)"/>
<path d="M0 0 C50.81892571 -0.99247205 50.81892571 -0.99247205 68.70410156 15.04681396 C80.21652036 27.86397356 81.58691883 41.90951101 80.89501953 58.49212646 C80.04696791 69.83996811 73.97870015 79.32279936 65.76660156 86.92181396 C61.927355 90.0875085 56.84856352 94.04681396 51.70410156 94.04681396 C58.95532312 106.26528201 66.66870885 118.13126481 74.59619141 129.91717529 C74.977341 130.48436279 75.3584906 131.05155029 75.75119019 131.63592529 C76.7944583 133.18712103 77.8400233 134.73677128 78.88574219 136.28631592 C79.48580078 137.19728027 80.08585937 138.10824463 80.70410156 139.04681396 C81.29900391 139.92877441 81.89390625 140.81073486 82.50683594 141.71942139 C82.90193359 142.48746094 83.29703125 143.25550049 83.70410156 144.04681396 C83.37410156 145.03681396 83.04410156 146.02681396 82.70410156 147.04681396 C77.95362805 147.17073273 73.20410195 147.26129957 68.45239258 147.32147217 C66.83731695 147.34656355 65.2223543 147.38064522 63.60766602 147.42401123 C61.2814545 147.48490682 58.95674797 147.5130752 56.62988281 147.53509521 C55.55302971 147.57380486 55.55302971 147.57380486 54.454422 147.61329651 C50.5503035 147.61546371 48.90366164 147.21050746 45.84741211 144.70355225 C43.47540408 141.76333224 41.26981548 138.76874305 39.20410156 135.60931396 C38.78829834 134.9804126 38.37249512 134.35151123 37.9440918 133.70355225 C32.34927776 125.1239524 27.22737146 116.24786507 22.0793457 107.39593506 C21.62551514 106.6207251 21.17168457 105.84551514 20.70410156 105.04681396 C20.15967407 103.67130371 20.15967407 103.67130371 19.60424805 102.26800537 C17.96858212 99.89578188 17.96858212 99.89578188 15.77992249 99.65286255 C13.34008807 99.55307059 10.95526743 99.61172055 8.51660156 99.73431396 C7.67162109 99.75687256 6.82664062 99.77943115 5.95605469 99.80267334 C3.87131358 99.86156433 1.78748352 99.95124599 -0.29589844 100.04681396 C-0.3062059 100.62088486 -0.31651337 101.19495575 -0.32713318 101.78642273 C-0.43497278 107.73947059 -0.5495882 113.69236012 -0.66821289 119.64520264 C-0.71163432 121.86945293 -0.75330389 124.09373811 -0.79321289 126.3180542 C-0.8507415 129.50769592 -0.91448528 132.69716077 -0.97949219 135.88665771 C-1.00456093 137.38820656 -1.00456093 137.38820656 -1.03013611 138.92008972 C-1.05008133 139.84096878 -1.07002655 140.76184784 -1.09057617 141.71063232 C-1.10612045 142.52559677 -1.12166473 143.34056122 -1.13768005 144.18022156 C-1.29589844 146.04681396 -1.29589844 146.04681396 -2.29589844 147.04681396 C-4.57537635 147.14702326 -6.85796979 147.177627 -9.13964844 147.17962646 C-10.16608459 147.18106155 -10.16608459 147.18106155 -11.21325684 147.18252563 C-12.66251721 147.18320726 -14.11178062 147.18135419 -15.56103516 147.17718506 C-17.78652772 147.17183649 -20.01181845 147.17713056 -22.23730469 147.18353271 C-23.64225305 147.18287193 -25.04720129 147.18159076 -26.45214844 147.17962646 C-27.73927734 147.17849854 -29.02640625 147.17737061 -30.35253906 147.1762085 C-33.29589844 147.04681396 -33.29589844 147.04681396 -34.29589844 146.04681396 C-34.40681345 144.18920245 -34.44723408 142.32736177 -34.46084595 140.4664917 C-34.47207993 139.25492401 -34.4833139 138.04335632 -34.49488831 136.79507446 C-34.50238832 135.44018609 -34.50978534 134.08529715 -34.51708984 132.73040771 C-34.52829904 131.31317823 -34.53993099 129.89595204 -34.55195618 128.47872925 C-34.58335945 124.61936417 -34.60844061 120.75998137 -34.63215303 116.90056229 C-34.65768551 112.87043412 -34.68803439 108.84034175 -34.71762085 104.8102417 C-34.76650119 98.04113812 -34.81117333 91.27201606 -34.85351562 84.50286865 C-34.90260344 76.66560701 -34.95890098 68.82842153 -35.01893675 60.99123669 C-35.07019864 54.27450711 -35.11755468 47.5577583 -35.16162431 40.84097767 C-35.18798599 36.82402999 -35.21573183 32.80710442 -35.24699783 28.79019165 C-35.27616958 25.01462545 -35.30045655 21.23905938 -35.32089806 17.46343613 C-35.3292336 16.07381925 -35.33930297 14.68421158 -35.35118675 13.29462051 C-35.36706677 11.40549237 -35.37619508 9.51631098 -35.38491821 7.62713623 C-35.39191553 6.56745132 -35.39891285 5.50776642 -35.40612221 4.41596985 C-35.29589844 2.04681396 -35.29589844 2.04681396 -34.29589844 1.04681396 C-32.33217712 0.88627254 -30.3627711 0.79491873 -28.39355469 0.73040771 C-26.49391968 0.66708252 -26.49391968 0.66708252 -24.5559082 0.60247803 C-23.15676138 0.56227776 -21.75759037 0.52291236 -20.35839844 0.48431396 C-19.65238495 0.46413208 -18.94637146 0.4439502 -18.21896362 0.42315674 C-12.14652975 0.25295976 -6.07352373 0.12384072 0 0 Z M-1.29589844 30.04681396 C-1.29589844 44.23681396 -1.29589844 58.42681396 -1.29589844 73.04681396 C5.52677309 73.80488858 11.45538387 74.14910606 18.20410156 73.85931396 C19.53248047 73.83127686 19.53248047 73.83127686 20.88769531 73.80267334 C28.2202172 73.49580568 34.4219577 71.85930895 40.07910156 67.01165771 C40.61535156 66.34263428 41.15160156 65.67361084 41.70410156 64.98431396 C42.26097656 64.3127124 42.81785156 63.64111084 43.39160156 62.94915771 C45.9892471 59.1841179 45.8972383 55.68386407 45.95410156 51.23431396 C45.99277344 49.430271 45.99277344 49.430271 46.03222656 47.58978271 C45.53863243 42.26014132 43.56831538 38.29995845 39.51660156 34.79681396 C38.98679687 34.31728271 38.45699219 33.83775146 37.91113281 33.34368896 C30.25710912 28.84610336 21.25995544 29.81371787 12.70410156 29.92181396 C8.08410156 29.96306396 3.46410156 30.00431396 -1.29589844 30.04681396 Z " fill="#FDD85E" transform="translate(300.2958984375,45.95318603515625)"/>
<path d="M0 0 C6.48607861 6.10089004 10.10578974 12.6916413 11.6640625 21.41796875 C10.10193936 30.16585832 0.4090323 36.36054628 -5.9609375 41.91796875 C-6.66605469 42.54960937 -7.37117188 43.18125 -8.09765625 43.83203125 C-10.03324464 45.55846962 -11.9611327 47.26580027 -13.9609375 48.91796875 C-14.44272461 49.41651367 -14.92451172 49.91505859 -15.42089844 50.42871094 C-21.9708778 56.46187001 -29.58936557 55.81196483 -37.9609375 55.79296875 C-39.41800461 55.81112131 -40.87504116 55.831932 -42.33203125 55.85546875 C-45.87517103 55.90697745 -49.41737457 55.92242366 -52.9609375 55.91796875 C-52.35614966 57.5357527 -51.74083936 59.14960566 -51.12109375 60.76171875 C-50.77957275 61.66083984 -50.43805176 62.55996094 -50.08618164 63.48632812 C-48.38723594 67.15773172 -46.64975607 68.30830246 -42.9609375 69.91796875 C-30.43952557 73.59118684 -18.4994263 71.78452571 -6.9609375 65.91796875 C-0.40694948 61.70130658 5.47311538 56.97181303 10.5390625 51.03515625 C12.0390625 49.91796875 12.0390625 49.91796875 14.1015625 49.98828125 C16.0390625 50.91796875 16.0390625 50.91796875 17.41015625 52.51171875 C18.34938986 56.1053082 17.24417267 59.00464246 16.1015625 62.41796875 C15.86920898 63.12630859 15.63685547 63.83464844 15.39746094 64.56445312 C10.6267397 78.43268341 3.31057469 87.98793171 -9.7734375 94.79296875 C-22.21859189 100.8357123 -35.78976605 101.24520969 -49.1484375 97.79296875 C-63.10604784 92.95525638 -73.84327878 84.00555416 -80.4609375 70.85546875 C-87.26823388 56.48817784 -88.20503207 41.27648878 -83.21484375 26.0625 C-78.27335605 13.67029565 -69.56627666 3.50814349 -57.9609375 -3.08203125 C-57.2803125 -3.47132812 -56.5996875 -3.860625 -55.8984375 -4.26171875 C-38.59658768 -13.52091182 -15.20973582 -12.60312032 0 0 Z M-50.3984375 22.35546875 C-53.07054036 26.73771744 -54.06329373 29.80015708 -53.9609375 34.91796875 C-44.4137686 35.49079888 -37.11283743 35.40977502 -28.9609375 29.91796875 C-28.18492187 29.40234375 -27.40890625 28.88671875 -26.609375 28.35546875 C-22.27655225 25.43856629 -22.27655225 25.43856629 -19.9609375 20.91796875 C-23.04654787 17.61955766 -24.9519592 16.10197427 -29.5625 15.6796875 C-37.82518221 15.4768568 -44.37788447 16.33491572 -50.3984375 22.35546875 Z " fill="#FDD85E" transform="translate(475.9609375,96.08203125)"/>
<path d="M0 0 C3.93245085 -0.12368591 7.86414798 -0.21437336 11.7980957 -0.2746582 C13.79353555 -0.31214374 15.78843052 -0.37567535 17.78320312 -0.43945312 C19.66362305 -0.46362305 19.66362305 -0.46362305 21.58203125 -0.48828125 C22.73936768 -0.51446533 23.8967041 -0.54064941 25.08911133 -0.56762695 C28 0 28 0 29.77734375 2.18798828 C30.97054782 4.93226234 32.04156003 7.63888699 32.98046875 10.48046875 C33.33616943 11.55006836 33.69187012 12.61966797 34.05834961 13.72167969 C34.43096924 14.86540039 34.80358887 16.00912109 35.1875 17.1875 C35.57752197 18.37118164 35.96754395 19.55486328 36.36938477 20.77441406 C41.17055639 35.43296997 45.78394101 50.16185599 50 65 C51.54006678 60.52725702 53.07837503 56.05391373 54.61526489 51.58007812 C55.16229373 49.98830805 55.70971645 48.39667327 56.25753784 46.80517578 C59.12365059 38.4771174 61.97375065 30.14610979 64.6953125 21.76953125 C65.0982251 20.53501221 65.5011377 19.30049316 65.91625977 18.02856445 C66.66670405 15.71841084 67.40967785 13.40581387 68.14428711 11.09057617 C68.64714233 9.54527222 68.64714233 9.54527222 69.16015625 7.96875 C69.44511963 7.07607422 69.73008301 6.18339844 70.02368164 5.26367188 C71.09554388 2.77847391 71.75934513 1.52679334 74 0 C76.8190918 -0.34057617 76.8190918 -0.34057617 80.19921875 -0.29296875 C82.01196289 -0.2784668 82.01196289 -0.2784668 83.86132812 -0.26367188 C85.7552832 -0.2259668 85.7552832 -0.2259668 87.6875 -0.1875 C89.59885742 -0.16719727 89.59885742 -0.16719727 91.54882812 -0.14648438 C94.69964057 -0.11108199 97.84961045 -0.0616979 101 0 C102.34324509 4.02973527 100.98742076 6.56766053 99.5625 10.375 C99.15849976 11.48536621 99.15849976 11.48536621 98.74633789 12.61816406 C97.84358837 15.08368861 96.92427292 17.54246621 96 20 C95.67225586 20.87237305 95.34451172 21.74474609 95.00683594 22.64355469 C92.23991296 29.98562077 89.43440421 37.3126673 86.58984375 44.625 C84.30316971 50.50711973 82.13813106 56.41603742 80.0625 62.375 C77.72922956 69.06764471 75.19199042 75.63898664 72.515625 82.203125 C71.41444092 84.92589608 70.37249765 87.66512755 69.359375 90.421875 C69.08996094 91.15462646 68.82054687 91.88737793 68.54296875 92.64233398 C68.02518473 94.05938515 67.51195366 95.47811058 67.00390625 96.89868164 C65.94828208 99.7852451 65.2010062 101.7989938 63 104 C59.06160587 104.48346287 55.08968422 104.37039526 51.125 104.375 C50.02285156 104.39949219 48.92070313 104.42398438 47.78515625 104.44921875 C46.19380859 104.45501953 46.19380859 104.45501953 44.5703125 104.4609375 C43.59852051 104.46915527 42.62672852 104.47737305 41.62548828 104.48583984 C38.20475085 103.85284119 37.12324712 102.71790723 35 100 C33.81494141 97.61254883 33.81494141 97.61254883 32.8515625 94.95703125 C32.48949707 93.97516846 32.12743164 92.99330566 31.75439453 91.98168945 C31.38169434 90.93585693 31.00899414 89.89002441 30.625 88.8125 C30.02921143 87.18284302 30.02921143 87.18284302 29.42138672 85.52026367 C27.04019353 78.98334213 24.7275981 72.42233643 22.44311523 65.85107422 C19.98307186 58.83298198 17.33130383 51.88795513 14.6875 44.9375 C14.21260302 43.68653994 13.73774948 42.43556338 13.26293945 41.18457031 C10.9582391 35.11784139 8.63719404 29.05790674 6.2890625 23.0078125 C5.46348258 20.8593977 4.63795882 18.71096133 3.8125 16.5625 C3.42602295 15.58079834 3.0395459 14.59909668 2.64135742 13.58764648 C2.29177979 12.67313721 1.94220215 11.75862793 1.58203125 10.81640625 C1.27499268 10.02693604 0.9679541 9.23746582 0.65161133 8.42407227 C-0.12198149 5.54621423 -0.10868266 2.96663401 0 0 Z " fill="#FDD85E" transform="translate(496,89)"/>
<path d="M0 0 C4.47915328 -0.02886338 8.95828291 -0.04675187 13.4375 -0.0625 C14.71689453 -0.07087891 15.99628906 -0.07925781 17.31445312 -0.08789062 C19.13686523 -0.09272461 19.13686523 -0.09272461 20.99609375 -0.09765625 C22.12200928 -0.10289307 23.2479248 -0.10812988 24.40795898 -0.11352539 C27 0 27 0 28 1 C28.10069779 4.16076344 28.13614023 7.29972027 28.12939453 10.4609375 C28.13114685 11.45434143 28.13289917 12.44774536 28.13470459 13.47125244 C28.13912511 16.77251912 28.13618441 20.07373273 28.1328125 23.375 C28.13348548 25.65804047 28.13445546 27.94108087 28.13571167 30.22412109 C28.13718891 35.01595744 28.13503323 39.80777519 28.13037109 44.59960938 C28.1246738 50.75716635 28.12795266 56.91467974 28.13394356 63.07223511 C28.13754845 67.78865897 28.13641091 72.50507241 28.13381577 77.22149658 C28.1331463 79.4926148 28.1339756 81.76373394 28.13629532 84.03485107 C28.13882067 87.20294722 28.1349829 90.37097172 28.12939453 93.5390625 C28.13141876 94.48767151 28.13344299 95.43628052 28.13552856 96.41363525 C28.11426224 102.88573776 28.11426224 102.88573776 27 104 C25.07332493 104.08748207 23.14348139 104.10697334 21.21484375 104.09765625 C19.46010742 104.09282227 19.46010742 104.09282227 17.66992188 104.08789062 C16.43822266 104.07951172 15.20652344 104.07113281 13.9375 104.0625 C12.08415039 104.05573242 12.08415039 104.05573242 10.19335938 104.04882812 C7.12885883 104.03699608 4.06445279 104.02051173 1 104 C-1.6230199 100.1002315 -1.27007429 95.95838996 -1.23046875 91.4453125 C-1.23037308 90.57551758 -1.2302774 89.70572266 -1.23017883 88.80957031 C-1.22641527 85.91458111 -1.20734076 83.01992049 -1.1875 80.125 C-1.18059815 78.10140104 -1.17409514 76.07780068 -1.16796875 74.05419922 C-1.06377031 49.36635582 -0.5383522 24.68154419 0 0 Z " fill="#FED85B" transform="translate(607,89)"/>
<path d="M0 0 C4.55822845 2.83623103 7.3782164 5.49096012 8.8125 10.75 C9.40089088 16.92810421 8.86325311 19.79907953 4.8125 24.75 C1.97453755 27.9319579 0.09425814 29.52780632 -4.2734375 29.953125 C-9.109563 30.05215829 -12.3235662 29.96994483 -16.1875 26.75 C-20.45256383 22.20625302 -22.51393671 19.22694995 -22.3984375 12.83984375 C-21.91906694 8.09052431 -19.68302424 4.98086688 -16.1875 1.9375 C-10.97421191 -1.8638559 -6.03589251 -2.36701667 0 0 Z " fill="#FBD75F" transform="translate(627.1875,51.25)"/>
<path d="M0 0 C4.47915328 -0.02886338 8.95828291 -0.04675187 13.4375 -0.0625 C14.71689453 -0.07087891 15.99628906 -0.07925781 17.31445312 -0.08789062 C19.13686523 -0.09272461 19.13686523 -0.09272461 20.99609375 -0.09765625 C22.12200928 -0.10289307 23.2479248 -0.10812988 24.40795898 -0.11352539 C27 0 27 0 28 1 C28.0952822 3.98298214 28.12552175 6.94276345 28.11352539 9.92602539 C28.11367142 10.86251419 28.11381744 11.79900299 28.1139679 12.76387024 C28.11326837 15.87515539 28.10547415 18.98638149 28.09765625 22.09765625 C28.09579221 24.24857043 28.09436824 26.39948503 28.09336853 28.55039978 C28.08954225 34.22381758 28.07971102 39.89720995 28.06866455 45.57061768 C28.0584528 51.35501766 28.05387142 57.13942173 28.04882812 62.92382812 C28.03808885 74.28256328 28.02101111 85.64127953 28 97 C27.67 97 27.34 97 27 97 C26.09952759 91.62952938 25.86224255 86.47488628 25.88647461 81.03540039 C25.88632858 80.16631042 25.88618256 79.29722046 25.8860321 78.40179443 C25.88672464 75.55038899 25.894486 72.69905018 25.90234375 69.84765625 C25.90421027 67.86225927 25.90563307 65.87686184 25.90663147 63.89146423 C25.91043819 58.68173945 25.92025265 53.47204281 25.93133545 48.2623291 C25.94158931 42.9398639 25.94613759 37.61739412 25.95117188 32.29492188 C25.96187665 21.86326693 25.97945843 11.43164022 26 1 C18.08 1 10.16 1 2 1 C2 34.33 2 67.66 2 102 C2.66 102 3.32 102 4 102 C4 102.66 4 103.32 4 104 C2.0625 103.6875 2.0625 103.6875 0 103 C-1.28014486 99.15956543 -1.14250168 95.54457604 -1.1328125 91.54296875 C-1.13413177 90.67175888 -1.13545105 89.80054901 -1.1368103 88.90293884 C-1.13875066 85.99775828 -1.13231647 83.0926711 -1.125 80.1875 C-1.12411377 79.19288757 -1.12322754 78.19827515 -1.12231445 77.17352295 C-1.09571942 51.44436318 -0.56104957 25.72213837 0 0 Z " fill="#F6CE69" transform="translate(607,89)"/>
<path d="M0 0 C23.43 0 46.86 0 71 0 C71 0.66 71 1.32 71 2 C62.50770245 2.75106713 54.09073078 3.15894744 45.56640625 3.16796875 C44.44483627 3.17129715 43.3232663 3.17462555 42.16770935 3.17805481 C39.82250372 3.18307251 37.47729107 3.18546475 35.13208008 3.18530273 C31.5469205 3.18750959 27.96205931 3.20577515 24.37695312 3.22460938 C22.08593854 3.22754035 19.79492251 3.22952712 17.50390625 3.23046875 C15.9053756 3.24124702 15.9053756 3.24124702 14.27455139 3.25224304 C9.11993201 3.236363 4.81832197 3.08194004 0 1 C0 0.67 0 0.34 0 0 Z " fill="#FAD650" transform="translate(134,191)"/>
<path d="M0 0 C0.33 0 0.66 0 1 0 C1 33.33 1 66.66 1 101 C1.66 101 2.32 101 3 101 C3 101.66 3 102.32 3 103 C1.0625 102.6875 1.0625 102.6875 -1 102 C-1.93075992 99.20772025 -2.12641951 97.52728879 -2.12939453 94.64306641 C-2.13254669 93.7642984 -2.13569885 92.8855304 -2.13894653 91.98013306 C-2.1369223 91.03020477 -2.13489807 90.08027649 -2.1328125 89.1015625 C-2.13376923 88.11562103 -2.13472595 87.12967957 -2.13571167 86.11386108 C-2.1363929 84.02073096 -2.13454259 81.92759873 -2.13037109 79.83447266 C-2.12507891 76.67215034 -2.13028826 73.5099738 -2.13671875 70.34765625 C-2.13980623 61.3165119 -2.08715251 52.37015338 -1.25390625 43.37109375 C-0.6482482 35.32981845 -0.61332712 27.2475588 -0.4375 19.1875 C-0.3941975 17.31965408 -0.35057998 15.45181543 -0.30664062 13.58398438 C-0.20079982 9.05606516 -0.09920603 4.52806924 0 0 Z " fill="#F2CD57" transform="translate(608,90)"/>
<path d="M0 0 C0.33 0 0.66 0 1 0 C1.05534912 0.57032959 1.11069824 1.14065918 1.16772461 1.72827148 C1.41973743 4.29848753 1.67852728 6.86797631 1.9375 9.4375 C2.02451172 10.33533203 2.11152344 11.23316406 2.20117188 12.15820312 C2.28818359 13.01220703 2.37519531 13.86621094 2.46484375 14.74609375 C2.543396 15.53685303 2.62194824 16.3276123 2.70288086 17.14233398 C2.81551499 19.01103348 2.81551499 19.01103348 4 20 C8.32490853 20.4652292 12.65935537 20.70500473 17 21 C17 14.07 17 7.14 17 0 C17.33 0 17.66 0 18 0 C18.02887512 3.64581687 18.04675585 7.29160463 18.0625 10.9375 C18.07087891 11.97841797 18.07925781 13.01933594 18.08789062 14.09179688 C18.09272461 15.57583008 18.09272461 15.57583008 18.09765625 17.08984375 C18.10551147 18.46450806 18.10551147 18.46450806 18.11352539 19.86694336 C18 22 18 22 17 23 C14.36608816 23.31819069 11.76846131 23.56150972 9.125 23.75 C8.02478516 23.85248047 8.02478516 23.85248047 6.90234375 23.95703125 C1.46440312 24.34333304 1.46440312 24.34333304 -1.0078125 22.515625 C-1.33523437 22.01546875 -1.66265625 21.5153125 -2 21 C-1.67 20.67 -1.34 20.34 -1 20 C-0.84344973 18.51361008 -0.74933057 17.02050873 -0.68359375 15.52734375 C-0.64169922 14.62822266 -0.59980469 13.72910156 -0.55664062 12.80273438 C-0.51732422 11.85720703 -0.47800781 10.91167969 -0.4375 9.9375 C-0.37272461 8.5134082 -0.37272461 8.5134082 -0.30664062 7.06054688 C-0.20020724 4.70718647 -0.09818992 2.35371646 0 0 Z " fill="#F4D264" transform="translate(152,144)"/>
<path d="M0 0 C0.33 0 0.66 0 1 0 C1.02505615 0.69037354 1.0501123 1.38074707 1.07592773 2.09204102 C1.1926566 5.24901409 1.31503178 8.40574457 1.4375 11.5625 C1.47681641 12.64853516 1.51613281 13.73457031 1.55664062 14.85351562 C1.59853516 15.91376953 1.64042969 16.97402344 1.68359375 18.06640625 C1.73858032 19.5196228 1.73858032 19.5196228 1.79467773 21.00219727 C1.96256921 24.07790611 1.96256921 24.07790611 2.52734375 27.40429688 C3.0227119 31.17277938 3.02067429 34.66861056 2.87890625 38.46484375 C2.85529526 39.14301651 2.83168427 39.82118927 2.80735779 40.51991272 C2.73155017 42.65936691 2.647177 44.7983804 2.5625 46.9375 C2.50919595 48.39906788 2.45645633 49.86065645 2.40429688 51.32226562 C2.27604979 54.88177298 2.14012555 58.44093817 2 62 C1.34 62 0.68 62 0 62 C0 41.54 0 21.08 0 0 Z " fill="#FCD34E" transform="translate(211,129)"/>
<path d="M0 0 C0.66 0.33 1.32 0.66 2 1 C2 16.18 2 31.36 2 47 C1.34 46.67 0.68 46.34 0 46 C-0.1678363 39.60978608 -0.32779785 33.21941052 -0.48217773 26.82885742 C-0.53568301 24.65303032 -0.59101865 22.47724745 -0.64819336 20.30151367 C-0.72986715 17.18157494 -0.80504532 14.06153847 -0.87890625 10.94140625 C-0.90594131 9.96224747 -0.93297638 8.98308868 -0.96083069 7.97425842 C-0.98092697 7.07340012 -1.00102325 6.17254181 -1.02172852 5.24438477 C-1.04171402 4.44718521 -1.06169952 3.64998566 -1.08229065 2.82862854 C-1 1 -1 1 0 0 Z " fill="#F1D167" transform="translate(297,145)"/>
<path d="M0 0 C0.66 0 1.32 0 2 0 C2 1.65 2 3.3 2 5 C1.34 5.33 0.68 5.66 0 6 C-0.65772428 9.02934491 -0.65772428 9.02934491 -1 12 C-1.66 12 -2.32 12 -3 12 C-2.67 9.69 -2.34 7.38 -2 5 C-13.22 5 -24.44 5 -36 5 C-36.33 4.34 -36.66 3.68 -37 3 C-25.12 2.67 -13.24 2.34 -1 2 C-0.67 1.34 -0.34 0.68 0 0 Z " fill="#F5D779" transform="translate(68,112)"/>
<path d="M0 0 C-3.48846822 2.14503684 -6.24405878 2.23354662 -10.296875 2.1953125 C-12.10478516 2.18564453 -12.10478516 2.18564453 -13.94921875 2.17578125 C-15.83060547 2.15064453 -15.83060547 2.15064453 -17.75 2.125 C-19.01972656 2.11597656 -20.28945313 2.10695313 -21.59765625 2.09765625 C-24.73196093 2.07409005 -27.86588541 2.04118832 -31 2 C-31 5.3 -31 8.6 -31 12 C-31.33 12 -31.66 12 -32 12 C-32.33 8.04 -32.66 4.08 -33 0 C-29.18777039 -0.19619551 -25.37548762 -0.38220111 -21.5625 -0.5625 C-20.49322266 -0.61857422 -19.42394531 -0.67464844 -18.32226562 -0.73242188 C-12.06766201 -1.0193303 -6.20112042 -0.88028523 0 0 Z " fill="#F7D054" transform="translate(329,74)"/>
<path d="M0 0 C0.66 0 1.32 0 2 0 C1.67 15.51 1.34 31.02 1 47 C0.67 47 0.34 47 0 47 C-0.16783252 40.46736699 -0.32779476 33.93457595 -0.48217773 27.40161133 C-0.53568392 25.17728264 -0.59101963 22.9529972 -0.64819336 20.72875977 C-0.7298646 17.53932018 -0.80504388 14.34978501 -0.87890625 11.16015625 C-0.91945885 9.65860741 -0.91945885 9.65860741 -0.96083069 8.12672424 C-0.98092697 7.20584518 -1.00102325 6.28496613 -1.02172852 5.33618164 C-1.04171402 4.52121719 -1.06169952 3.70625275 -1.08229065 2.86659241 C-1 1 -1 1 0 0 Z " fill="#F4D265" transform="translate(89,145)"/>
<path d="M0 0 C1.31322788 0.97819024 2.62556152 1.9575811 3.9375 2.9375 C4.66839844 3.48277344 5.39929688 4.02804688 6.15234375 4.58984375 C8 6 8 6 9 7 C9.04063832 8.66617115 9.042721 10.33388095 9 12 C7.02 12 5.04 12 3 12 C2.67 11.01 2.34 10.02 2 9 C2.66 8.01 3.32 7.02 4 6 C3.34 5.38125 2.68 4.7625 2 4.125 C0 2 0 2 0 0 Z " fill="#F7D56C" transform="translate(239,103)"/>
<path d="M0 0 C0.845625 0.495 1.69125 0.99 2.5625 1.5 C-0.65201269 3.10725635 -3.87362536 2.55748185 -7.4375 2.5 C-7.4375 1.84 -7.4375 1.18 -7.4375 0.5 C-8.37722656 0.95052734 -8.37722656 0.95052734 -9.3359375 1.41015625 C-10.15320313 1.79042969 -10.97046875 2.17070313 -11.8125 2.5625 C-12.62460937 2.94535156 -13.43671875 3.32820313 -14.2734375 3.72265625 C-14.98757813 3.97917969 -15.70171875 4.23570313 -16.4375 4.5 C-17.0975 4.17 -17.7575 3.84 -18.4375 3.5 C-12.50867365 -1.46739505 -7.4413343 -3.2471277 0 0 Z " fill="#F6D168" transform="translate(627.4375,51.5)"/>
<path d="M0 0 C2.34177971 1.19143178 2.85082308 2.50264712 3.78125 4.90625 C2.79125 6.39125 2.79125 6.39125 1.78125 7.90625 C1.78125 6.25625 1.78125 4.60625 1.78125 2.90625 C0.46125 2.90625 -0.85875 2.90625 -2.21875 2.90625 C-2.21875 4.55625 -2.21875 6.20625 -2.21875 7.90625 C-2.87875 7.90625 -3.53875 7.90625 -4.21875 7.90625 C-4.21875 7.24625 -4.21875 6.58625 -4.21875 5.90625 C-5.86875 7.22625 -7.51875 8.54625 -9.21875 9.90625 C-9.87875 9.57625 -10.53875 9.24625 -11.21875 8.90625 C-9.81796602 7.37077525 -8.39754097 5.85319852 -6.96875 4.34375 C-5.78539062 3.07337891 -5.78539062 3.07337891 -4.578125 1.77734375 C-2.21875 -0.09375 -2.21875 -0.09375 0 0 Z " fill="#F6D869" transform="translate(490.21875,146.09375)"/>
<path d="M0 0 C0.33 0.99 0.66 1.98 1 3 C-0.66666667 4.66666667 -2.33333333 6.33333333 -4 8 C-4.69748583 9.31747324 -5.36959957 10.64914193 -6 12 C-6 11.34 -6 10.68 -6 10 C-9.465 11.485 -9.465 11.485 -13 13 C-11.44533803 8.91667098 -8.74912156 6.91791007 -5.375 4.25 C-4.37210938 3.45078125 -3.36921875 2.6515625 -2.3359375 1.828125 C-1.17964844 0.92320313 -1.17964844 0.92320313 0 0 Z " fill="#F4D567" transform="translate(74,74)"/>
<path d="M0 0 C0.66 0 1.32 0 2 0 C0.73727116 3.78818652 -0.99375856 5.40370057 -4 8 C-6.8125 8.8125 -6.8125 8.8125 -9 9 C-9 9.66 -9 10.32 -9 11 C-8.34 11 -7.68 11 -7 11 C-7 11.66 -7 12.32 -7 13 C-8.11375 12.9690625 -8.11375 12.9690625 -9.25 12.9375 C-11.70462279 12.99328688 -13.66109261 13.3069904 -16 14 C-12.04058225 9.77662107 -7.65581029 6.24983886 -3.109375 2.671875 C-1.13248821 1.17080011 -1.13248821 1.17080011 0 0 Z " fill="#F6D46F" transform="translate(117,39)"/>
<path d="M0 0 C3.96930989 -0.02465881 7.93859034 -0.04284023 11.90795898 -0.05493164 C13.25920386 -0.05997057 14.61044326 -0.06680177 15.96166992 -0.07543945 C17.90020434 -0.08752419 19.838778 -0.09269828 21.77734375 -0.09765625 C23.52905884 -0.10551147 23.52905884 -0.10551147 25.31616211 -0.11352539 C28 0 28 0 29 1 C29.04063832 2.66617115 29.042721 4.33388095 29 6 C27 5 27 5 26 2 C13.13 1.505 13.13 1.505 0 1 C0 0.67 0 0.34 0 0 Z " fill="#F2D563" transform="translate(497,90)"/>
<path d="M0 0 C0.66 0.33 1.32 0.66 2 1 C-2.54545455 5.67171717 -2.54545455 5.67171717 -5.25 7.625 C-7.29712875 8.97372834 -7.29712875 8.97372834 -8 12 C-9.65 11.67 -11.3 11.34 -13 11 C-9.0299782 6.78185183 -4.69159716 3.38772897 0 0 Z " fill="#F6D469" transform="translate(477,156)"/>
<path d="M0 0 C1.98 0.99 1.98 0.99 4 2 C4 4.64 4 7.28 4 10 C4.99 10.33 5.98 10.66 7 11 C6.67 12.98 6.34 14.96 6 17 C3.97774806 13.9666221 3.00652476 11.38655511 1.875 7.9375 C1.52179687 6.87402344 1.16859375 5.81054688 0.8046875 4.71484375 C0 2 0 2 0 0 Z " fill="#F8D76B" transform="translate(521,159)"/>
<path d="M0 0 C4.2026393 2.63886654 7.56638098 5.36440339 11 9 C7.75 8.875 7.75 8.875 4 8 C0 3.17948718 0 3.17948718 0 0 Z " fill="#F6D268" transform="translate(199,71)"/>
<path d="M0 0 C-0.33 0.66 -0.66 1.32 -1 2 C0.65 2.33 2.3 2.66 4 3 C3.67 3.99 3.34 4.98 3 6 C2.175 5.54625 1.35 5.0925 0.5 4.625 C-3.35124368 2.83692258 -6.86722799 1.92631097 -11 1 C-11 0.67 -11 0.34 -11 0 C-3.375 -1.125 -3.375 -1.125 0 0 Z " fill="#F8D268" transform="translate(336,75)"/>
<path d="M0 0 C0.66 0.33 1.32 0.66 2 1 C-1.34003602 5.32239956 -4.32751069 8.17477391 -9 11 C-9.66 10.34 -10.32 9.68 -11 9 C-7.37 6.03 -3.74 3.06 0 0 Z " fill="#F3D46C" transform="translate(90,61)"/>
<path d="M0 0 C0 3.25811062 -0.5522078 5.10441559 -2 8 C-2.99 8.33 -3.98 8.66 -5 9 C-5 9.99 -5 10.98 -5 12 C-5.66 12 -6.32 12 -7 12 C-7 12.66 -7 13.32 -7 14 C-7.66 13.67 -8.32 13.34 -9 13 C-7.8782037 11.2063257 -6.75245517 9.4151227 -5.625 7.625 C-4.99851562 6.62726563 -4.37203125 5.62953125 -3.7265625 4.6015625 C-2 2 -2 2 0 0 Z " fill="#F4D672" transform="translate(404,104)"/>
<path d="M0 0 C1.07765625 0.00902344 2.1553125 0.01804688 3.265625 0.02734375 C4.08546875 0.03894531 4.9053125 0.05054688 5.75 0.0625 C5.75 0.3925 5.75 0.7225 5.75 1.0625 C-0.19 1.5575 -0.19 1.5575 -6.25 2.0625 C-6.25 2.7225 -6.25 3.3825 -6.25 4.0625 C-7.9 4.0625 -9.55 4.0625 -11.25 4.0625 C-10.92 3.0725 -10.59 2.0825 -10.25 1.0625 C-6.95298938 -0.28557677 -3.5145039 -0.03820113 0 0 Z " fill="#FCD74F" transform="translate(451.25,191.9375)"/>
<path d="M0 0 C0.66 0 1.32 0 2 0 C2.69640673 2.12209776 3.38188357 4.24778527 4.0625 6.375 C4.44535156 7.55835938 4.82820312 8.74171875 5.22265625 9.9609375 C6 13 6 13 5 15 C4.67 13.35 4.34 11.7 4 10 C3.01 9.67 2.02 9.34 1 9 C1.020625 8.2575 1.04125 7.515 1.0625 6.75 C1.00671312 4.29537721 0.6930096 2.33890739 0 0 Z " fill="#F5D468" transform="translate(535,125)"/>
<path d="M0 0 C1.65 0 3.3 0 5 0 C5.144375 0.928125 5.28875 1.85625 5.4375 2.8125 C5.92100111 6.00725111 5.92100111 6.00725111 7 9 C2.97449681 7.6581656 2.11714364 5.5772427 0 2 C0 1.34 0 0.68 0 0 Z " fill="#F7D973" transform="translate(337,176)"/>
<path d="M0 0 C0.66 0 1.32 0 2 0 C2 1.65 2 3.3 2 5 C1.01 5.495 1.01 5.495 0 6 C-0.65772428 9.02934491 -0.65772428 9.02934491 -1 12 C-1.66 12 -2.32 12 -3 12 C-2.88541307 10.56163249 -2.75790884 9.12429034 -2.625 7.6875 C-2.55539063 6.88699219 -2.48578125 6.08648437 -2.4140625 5.26171875 C-2 3 -2 3 0 0 Z " fill="#FCD973" transform="translate(68,112)"/>
<path d="M0 0 C1.90318884 2.85478326 2.4619099 4.41941308 3.125 7.6875 C3.29257812 8.49574219 3.46015625 9.30398437 3.6328125 10.13671875 C3.75398437 10.75160156 3.87515625 11.36648437 4 12 C2.35 11.01 0.7 10.02 -1 9 C-0.67 6.03 -0.34 3.06 0 0 Z " fill="#F6D369" transform="translate(529,103)"/>
<path d="M0 0 C1.65 0 3.3 0 5 0 C1.98112756 3.48331435 -0.56909529 4.79157144 -5 6 C-5 5.34 -5 4.68 -5 4 C-4.01 4 -3.02 4 -2 4 C-1.34 2.68 -0.68 1.36 0 0 Z " fill="#F4D66D" transform="translate(469,185)"/>
<path d="M0 0 C3.81684226 1.55500981 6.19195732 4.03595495 9 7 C8.236875 6.67 7.47375 6.34 6.6875 6 C4.00930865 4.82563314 4.00930865 4.82563314 1 5 C0.67 3.35 0.34 1.7 0 0 Z " fill="#F6D571" transform="translate(181,57)"/>
<path d="M0 0 C0.99 0.66 1.98 1.32 3 2 C-3.75 6 -3.75 6 -6 6 C-6 5.34 -6 4.68 -6 4 C-4.03852126 2.61061923 -2.03833424 1.2739589 0 0 Z " fill="#F4D669" transform="translate(360,133)"/>
<path d="M0 0 C0.66 0 1.32 0 2 0 C3.625 3.3125 3.625 3.3125 5 7 C4.01 8.485 4.01 8.485 3 10 C0 3.375 0 3.375 0 0 Z " fill="#F5DA7F" transform="translate(529,181)"/>
<path d="M0 0 C2.66735273 2.48952921 4.55746343 4.63408134 6 8 C4.35 7.67 2.7 7.34 1 7 C0 2.25 0 2.25 0 0 Z " fill="#F3DA6C" transform="translate(362,158)"/>
<path d="M0 0 C2 3 2 3 2 5 C-1 7 -1 7 -3.1875 6.625 C-3.785625 6.41875 -4.38375 6.2125 -5 6 C-3.35 4.02 -1.7 2.04 0 0 Z " fill="#F5DC7B" transform="translate(344,107)"/>
<path d="M0 0 C1.32 0.33 2.64 0.66 4 1 C3.34 2.65 2.68 4.3 2 6 C0.68 5.34 -0.64 4.68 -2 4 C-1.34 2.68 -0.68 1.36 0 0 Z " fill="#F6D767" transform="translate(420,123)"/>
<path d="M0 0 C3.81684226 1.55500981 6.19195732 4.03595495 9 7 C5.56072421 5.7580393 2.74792181 4.44259716 0 2 C0 1.34 0 0.68 0 0 Z " fill="#F0D073" transform="translate(171,49)"/>
<path d="M0 0 C0.66 0 1.32 0 2 0 C1.4140625 6.15234375 1.4140625 6.15234375 1 8 C0.01 8.495 0.01 8.495 -1 9 C-1.125 2.25 -1.125 2.25 0 0 Z " fill="#F7D771" transform="translate(490,154)"/>
<path d="M0 0 C2 1 2 1 3.1875 3.3125 C4.03624754 6.11989571 3.99928333 7.301935 3 10 C0.64551835 7.44931155 0.01672076 6.28982642 -0.1875 2.75 C-0.125625 1.8425 -0.06375 0.935 0 0 Z " fill="#F0D666" transform="translate(632,56)"/>
</svg>
